<svg xmlns="http://www.w3.org/2000/svg" viewBox="0 0 120 120"><path d="M28 6H92A22 22 0 0 1 114 28V92A22 22 0 0 1 92 114H28A22 22 0 0 1 6 92V28A22 22 0 0 1 28 6Z" fill="#F3F1EC"/><path d="M6 70Q12.75 64 19.5 70T33 70T46.5 70T60 70T73.5 70T87 70T100.5 70T114 70V92A22 22 0 0 1 92 114H28A22 22 0 0 1 6 92Z" fill="#FF6B35"/><path d="M28 6H92A22 22 0 0 1 114 28V92A22 22 0 0 1 92 114H28A22 22 0 0 1 6 92V28A22 22 0 0 1 28 6Z" fill="none" stroke="#161616" stroke-width="8"/><text x="26" y="58" font-family="ui-monospace,Menlo,monospace" font-weight="700" font-size="48" fill="#161616">A</text></svg>